{"title":"Killers 2010 CAM XviD-SLUGGER [TZ]","uid":5610627,"size":337513878,"categoryP":"video","categoryS":"movies","magnet":"?xt=urn:btih:7ee3bc2ea1ec68d872f71dc7418db9e2a89b32f7&amp;dn=Killers+2010+CAM+XviD-SLUGGER+%5BTZ%5D&amp;tr=udp%3A%2F%2Ftracker.openbittorrent.com%3A80&amp;tr=udp%3A%2F%2Fopen.demonii.com%3A1337&amp;tr=udp%3A%2F%2Ftracker.coppersurfer.tk%3A6969&amp;tr=udp%3A%2F%2Fexodus.desync.com%3A6969","seeders":0,"leechers":0,"uploader":"torrentzone","files":3,"time":1275847612,"description":"LIKE THIS TORRENT? COME AND JOIN HTTP://TORRENTZONE.NET - MORE TV, FASTER SPEEDS, AND SSL DOWNLOADS AVAILABLE\n\n**WE ARE CURRENTLY SEEKING HIGH SPEED UPLOADERS - 100 MBIT SERVER OR BETTER - SCENE ACCOUNTS HIGHLY PREFERRED. FILL OUT APPLICATION ON SITE OR CONTACT STAFF FOR MORE DETAILS**\n\n-------------------------------------------------------------------------------------\n &lt;a href=&quot;\nhttp://www.imdb.com/title/tt1103153/&quot; rel=&quot;nofollow&quot; target=&quot;_NEW&quot;&gt;\nhttp://www.imdb.com/title/tt1103153/&lt;/a&gt;\n\nPlot:\n\nSpencer Aimes (Kutcher) is just your average, undercover, government-hired super-assassin accustomed to a life of exotic European locales, flashy sports cars and even flashier women. But when he meets Jen Kornfeldt (Heigl), a beautiful, fun-loving computer tech recovering from a bad break-up, he finds true love...and happily trades international intrigue for domestic bliss. Three years later, Spencer and Jen are still enjoying a picture-perfect marriage - that is, until the morning after Spencer's 30th birthday. That's when Spencer and Jen learn he's the target of a multi-million dollar hit. Even worse, the hired killers have been stalking the happy couple for years, and could be anyone: friends, neighbors, the grocery store clerk, even that crabby old guy shuffling across the street. Now Spencer and Jen are on the run for their lives. As their suburban paradise turns into a paranoid game of dodge-the-bullet, they must find out who wants Spencer dead and why, all the while trying to save their marriage, manage his in-laws, keep up neighborly appearances ... and just plain survive.\n\nSource                           : My Own\nGeneral\nComplete name                    : Killers.2010.CAM.XviD-SLUGGER.avi\nFormat                           : AVI\nFormat/Info                      : Audio Video Interleave\nFile size                        : 315 MiB\nDuration                         : 1h 30mn\nOverall bit rate                 : 488 Kbps\nWriting library                  : VirtualDub build 32661/release\n\nVideo\nID                               : 0\nFormat                           : MPEG-4 Visual\nFormat profile                   : AdvancedSimple@L5\nFormat settings, BVOP            : Yes\nFormat settings, QPel            : No\nFormat settings, GMC             : No warppoints\nFormat settings, Matrix          : Default (H.263)\nMuxing mode                      : Packed bitstream\nCodec ID                         : XVID\nCodec ID/Hint                    : XviD\nDuration                         : 1h 30mn\nBit rate                         : 316 Kbps\nWidth                            : 480 pixels\nHeight                           : 300 pixels\nDisplay aspect ratio             : 1.600\nFrame rate                       : 30.000 fps\nResolution                       : 24 bits\nColorimetry                      : 4:2:0\nScan type                        : Progressive\nBits/(Pixel*Frame)               : 0.073\nStream size                      : 204 MiB (65%)\nWriting library                  : XviD 1.2.1 (UTC 2008-12-04)\n\nAudio\nID                               : 1\nFormat                           : MPEG Audio\nFormat version                   : Version 1\nFormat profile                   : Layer 3\nCodec ID                         : 55\nCodec ID/Hint                    : MP3\nDuration                         : 1h 30mn\nBit rate mode                    : Constant\nBit rate                         : 160 Kbps\nChannel(s)                       : 2 channels\nSampling rate                    : 44.1 KHz\nResolution                       : 16 bits\nStream size                      : 103 MiB (33%)\nAlignment                        : Split accross interleaves\nInterleave, duration             : 33 ms (1.00 video frame)\nInterleave, preload duration     : 500 ms\nWriting library                  : LAME3.97\n\nNotes:\nThanks again to TA for all there help in bringing this to you.","torrent":{"xt":"urn:btih:7ee3bc2ea1ec68d872f71dc7418db9e2a89b32f7","amp;dn":"Killers+2010+CAM+XviD-SLUGGER+%5BTZ%5D","amp;tr":["udp%3A%2F%2Ftracker.openbittorrent.com%3A80","udp%3A%2F%2Fopen.demonii.com%3A1337","udp%3A%2F%2Ftracker.coppersurfer.tk%3A6969","udp%3A%2F%2Fexodus.desync.com%3A6969"],"infoHash":"7ee3bc2ea1ec68d872f71dc7418db9e2a89b32f7","infoHashBuffer":{"type":"Buffer","data":[126,227,188,46,161,236,104,216,114,247,29,199,65,141,185,226,168,155,50,247]},"announce":[],"urlList":[]}}